<svg viewBox="0 0 200 200" xmlns="http://www.w3.org/2000/svg">
  <path fill="#FF0066" d="M45.2,-74.7C59.4,-70.1,72.2,-59.6,79.4,-46.1C86.6,-32.7,88.2,-16.3,87.6,-0.3C87.1,15.8,84.5,31.5,77.3,45C70.1,58.5,58.4,69.7,44.8,75.6C31.1,81.4,15.6,81.9,-0.3,82.5C-16.3,83.1,-32.5,83.8,-46.9,78.4C-61.3,73,-73.8,61.4,-82,47.3C-90.3,33.2,-94.4,16.6,-92.1,1.3C-89.8,-14,-81.3,-28,-71.8,-40C-62.3,-52,-52,-62,-39.9,-67.8C-27.7,-73.5,-13.9,-74.9,0.8,-76.3C15.5,-77.8,31,-79.2,45.2,-74.7Z" transform="translate(100 100)" />
</svg>