<svg width="46" height="50" viewBox="0 0 46 50" fill="none" xmlns="http://www.w3.org/2000/svg">
<path d="M0.259417 49.3906V0H17.585C34.1226 0 38.7871 6.87028 42.0272 11.646C48.6778 21.4487 44.2723 36.9906 40.0786 40.8028C34.5208 37.8871 30.7592 33.4298 31.2252 27.9419C30.9286 24.7163 33.1738 21.7419 33.555 17.2176C33.9914 12.0382 29.3189 8.8392 25.6759 8.42028C22.0329 8.00136 18.4322 10.9338 17.585 13.3216C16.7378 15.7095 13.0524 16.0865 10.4684 15.7514C8.40116 15.4833 7.40427 15.8631 7.16423 16.0865C6.69826 18.4325 11.0191 20.4852 15.5093 21.7419C19.9995 21.7419 20.6632 22.1888 20.635 22.4122C23.1766 25.2609 20.169 29.7852 16.1447 36.446C12.879 41.8513 14.4785 47.3938 15.5093 49.3906H0.259417Z" fill="#E77A4C"/>
<path d="M21.0586 16.7987C20.635 18.0554 23.7273 19.6892 24.278 16.7987C24.5414 15.4162 21.3975 14.0338 21.0586 16.7987Z" fill="#E77A4C"/>
</svg>
